<?xml version="1.0" standalone="no"?>
<!DOCTYPE svg PUBLIC "-//W3C//DTD SVG 20010904//EN"
 "http://www.w3.org/TR/2001/REC-SVG-20010904/DTD/svg10.dtd">
<svg version="1.0" xmlns="http://www.w3.org/2000/svg"
 width="298.000000pt" height="298.000000pt" viewBox="0 0 298.000000 298.000000"
 preserveAspectRatio="xMidYMid meet">
<metadata>
Created by potrace 1.14, written by Peter Selinger 2001-2017
</metadata>
<g transform="translate(0.000000,298.000000) scale(0.100000,-0.100000)"
fill="#000000" stroke="none">
<path d="M1387 2042 c-25 -44 -21 -66 23 -117 43 -50 49 -78 24 -113 -26 -38
-7 -37 31 1 50 50 49 92 -6 152 -23 25 -44 59 -48 76 l-6 30 -18 -29z"/>
<path d="M1345 1930 c-5 -15 0 -31 15 -51 13 -19 19 -37 15 -49 -9 -30 13 -24
27 6 9 20 9 29 0 42 -7 9 -21 30 -31 46 -19 28 -19 28 -26 6z"/>
<path d="M1144 1723 c-7 -7 -29 -13 -49 -13 -53 0 -95 -44 -95 -100 0 -89 50
-146 139 -157 42 -5 54 -11 80 -44 l31 -38 -52 -3 c-55 -3 -68 -16 -43 -42 14
-14 49 -16 264 -16 233 0 249 1 265 19 26 28 12 41 -45 41 l-50 0 31 43 c44
62 71 142 77 229 5 61 3 79 -8 82 -8 3 -131 7 -273 8 -198 2 -263 0 -272 -9z
m-10 -85 c2 -7 8 -37 13 -65 l10 -53 -28 0 c-50 0 -91 84 -57 118 16 16 58 15
62 0z"/>
<path d="M351 1108 c-32 -11 -50 -37 -51 -70 0 -40 9 -57 42 -74 35 -18 61
-11 88 23 25 32 25 63 0 95 -23 30 -47 38 -79 26z m59 -27 c25 -47 5 -111 -35
-111 -27 0 -45 25 -45 65 0 40 18 65 45 65 14 0 29 -8 35 -19z"/>
<path d="M1274 1106 c-43 -19 -58 -71 -34 -116 21 -40 111 -44 119 -5 3 19 2
19 -16 3 -38 -35 -83 -11 -83 43 0 63 41 89 82 52 17 -15 18 -15 18 1 0 12
-39 39 -53 36 -1 -1 -16 -7 -33 -14z"/>
<path d="M1704 1106 c-33 -15 -44 -33 -44 -71 0 -38 11 -56 43 -70 36 -15 87
-2 87 23 0 13 -2 13 -18 -1 -37 -34 -82 -9 -82 44 0 63 41 89 82 52 18 -16 24
-8 10 13 -12 19 -46 24 -78 10z"/>
<path d="M150 1093 c0 -13 3 -14 12 -5 23 23 28 12 28 -58 0 -56 3 -70 15 -70
12 0 15 15 15 71 l0 71 26 -6 c17 -5 23 -3 19 4 -3 5 -31 10 -61 10 -44 0 -54
-3 -54 -17z"/>
<path d="M490 1035 c0 -60 3 -75 15 -75 9 0 15 9 15 24 0 19 7 26 30 31 72 16
55 95 -20 95 l-40 0 0 -75z m76 39 c8 -29 -7 -49 -30 -41 -10 4 -16 18 -16 37
0 40 36 43 46 4z"/>
<path d="M715 1035 c0 -53 4 -75 13 -75 8 0 12 17 12 52 l0 53 46 -53 c25 -28
50 -52 55 -52 5 0 9 34 9 75 0 43 -4 75 -10 75 -5 0 -10 -24 -10 -54 l0 -55
-51 55 c-29 30 -55 54 -58 54 -3 0 -6 -34 -6 -75z"/>
<path d="M916 1088 c-21 -30 -20 -81 2 -109 24 -29 75 -30 104 -2 25 26 27 87
2 114 -25 28 -88 26 -108 -3z m88 -10 c40 -57 -15 -143 -62 -96 -15 15 -16 72
-2 99 14 26 45 24 64 -3z"/>
<path d="M1080 1099 c0 -6 9 -8 20 -4 19 6 20 2 20 -64 0 -56 3 -71 15 -71 12
0 15 15 15 71 l0 71 26 -6 c17 -5 23 -3 19 4 -8 13 -115 13 -115 -1z"/>
<path d="M1400 1035 c0 -60 3 -75 15 -75 10 0 15 11 15 35 0 34 1 35 40 35 39
0 40 -1 40 -35 0 -19 5 -35 10 -35 6 0 10 32 10 75 0 43 -4 75 -10 75 -5 0
-10 -16 -10 -35 0 -34 -1 -35 -40 -35 -39 0 -40 1 -40 35 0 24 -5 35 -15 35
-12 0 -15 -15 -15 -75z"/>
<path d="M1846 1091 c-25 -27 -23 -88 2 -114 29 -28 80 -27 104 2 22 28 23 79
2 109 -20 29 -83 31 -108 3z m92 -24 c24 -50 -16 -116 -55 -91 -22 13 -30 89
-12 110 18 22 52 13 67 -19z"/>
<path d="M2020 1035 c0 -55 3 -75 13 -75 9 0 12 11 9 35 -4 34 -4 35 32 35 21
0 35 4 32 9 -3 4 -17 6 -31 3 -23 -4 -25 -1 -25 28 0 32 1 32 35 27 19 -3 35
-2 35 4 0 5 -22 9 -50 9 l-50 0 0 -75z"/>
<path d="M2160 1035 c0 -60 3 -75 15 -75 10 0 15 11 15 35 0 32 2 35 30 35 17
0 30 4 30 8 0 5 -13 7 -30 4 -28 -4 -30 -2 -30 27 0 26 4 31 23 31 13 0 28 -5
35 -12 9 -9 12 -8 12 5 0 14 -10 17 -50 17 l-50 0 0 -75z"/>
<path d="M2305 1035 l0 -75 47 0 c26 0 49 4 52 9 4 5 -11 7 -34 4 -39 -6 -40
-5 -40 26 0 28 3 31 30 31 17 0 30 4 30 8 0 4 -12 8 -27 7 -23 0 -28 4 -28 25
0 22 4 25 37 24 21 -1 35 3 32 7 -3 5 -26 9 -52 9 l-47 0 0 -75z"/>
<path d="M2450 1035 l0 -75 50 0 c40 0 50 3 50 17 0 13 -3 14 -12 5 -7 -7 -22
-12 -35 -12 -19 0 -23 5 -23 30 0 27 3 30 30 30 17 0 30 4 30 8 0 5 -13 7 -30
4 -28 -4 -30 -2 -30 27 0 26 4 31 23 31 13 0 28 -5 35 -12 9 -9 12 -8 12 5 0
14 -10 17 -50 17 l-50 0 0 -75z"/>
</g>
</svg>
